<mxfile host="app.diagrams.net" agent="Mozilla/5.0 (Windows NT 10.0; Win64; x64) AppleWebKit/537.36 (KHTML, like Gecko) Chrome/131.0.0.0 Safari/537.36" version="25.0.3">
  <diagram name="Page-1" id="te4xaBHOvTCDPpX5QLac">
    <mxGraphModel dx="2109" dy="686" grid="1" gridSize="10" guides="1" tooltips="1" connect="1" arrows="1" fold="1" page="1" pageScale="1" pageWidth="850" pageHeight="1100" math="0" shadow="0">
      <root>
        <mxCell id="0" />
        <mxCell id="1" parent="0" />
        <mxCell id="m6Nd3gaxf4WbKn25r59d-3" style="edgeStyle=orthogonalEdgeStyle;rounded=0;orthogonalLoop=1;jettySize=auto;html=1;entryX=0;entryY=0.5;entryDx=0;entryDy=0;" edge="1" parent="1" source="m6Nd3gaxf4WbKn25r59d-1" target="m6Nd3gaxf4WbKn25r59d-2">
          <mxGeometry relative="1" as="geometry" />
        </mxCell>
        <mxCell id="m6Nd3gaxf4WbKn25r59d-5" style="edgeStyle=orthogonalEdgeStyle;rounded=0;orthogonalLoop=1;jettySize=auto;html=1;entryX=0;entryY=0.5;entryDx=0;entryDy=0;" edge="1" parent="1" source="m6Nd3gaxf4WbKn25r59d-1" target="m6Nd3gaxf4WbKn25r59d-4">
          <mxGeometry relative="1" as="geometry" />
        </mxCell>
        <mxCell id="m6Nd3gaxf4WbKn25r59d-1" value="&lt;b&gt;Browser&lt;/b&gt;" style="rounded=0;whiteSpace=wrap;html=1;fillColor=#dae8fc;gradientColor=#7ea6e0;strokeColor=#6c8ebf;" vertex="1" parent="1">
          <mxGeometry x="-60" y="160" width="120" height="60" as="geometry" />
        </mxCell>
        <mxCell id="m6Nd3gaxf4WbKn25r59d-2" value="&lt;b&gt;Cache&lt;/b&gt;" style="ellipse;whiteSpace=wrap;html=1;fillColor=#f5f5f5;gradientColor=#b3b3b3;strokeColor=#666666;" vertex="1" parent="1">
          <mxGeometry x="40" y="50" width="80" height="60" as="geometry" />
        </mxCell>
        <mxCell id="m6Nd3gaxf4WbKn25r59d-7" style="edgeStyle=orthogonalEdgeStyle;rounded=0;orthogonalLoop=1;jettySize=auto;html=1;entryX=0;entryY=0.5;entryDx=0;entryDy=0;" edge="1" parent="1" source="m6Nd3gaxf4WbKn25r59d-4" target="m6Nd3gaxf4WbKn25r59d-6">
          <mxGeometry relative="1" as="geometry" />
        </mxCell>
        <mxCell id="m6Nd3gaxf4WbKn25r59d-9" style="edgeStyle=orthogonalEdgeStyle;rounded=0;orthogonalLoop=1;jettySize=auto;html=1;entryX=0;entryY=0.5;entryDx=0;entryDy=0;" edge="1" parent="1" source="m6Nd3gaxf4WbKn25r59d-4" target="m6Nd3gaxf4WbKn25r59d-8">
          <mxGeometry relative="1" as="geometry" />
        </mxCell>
        <mxCell id="m6Nd3gaxf4WbKn25r59d-4" value="&lt;b&gt;OS&lt;/b&gt;" style="rounded=0;whiteSpace=wrap;html=1;fillColor=#d5e8d4;gradientColor=#97d077;strokeColor=#82b366;" vertex="1" parent="1">
          <mxGeometry x="160" y="160" width="120" height="60" as="geometry" />
        </mxCell>
        <mxCell id="m6Nd3gaxf4WbKn25r59d-6" value="&lt;b&gt;Cache&lt;/b&gt;" style="ellipse;whiteSpace=wrap;html=1;fillColor=#f5f5f5;gradientColor=#b3b3b3;strokeColor=#666666;" vertex="1" parent="1">
          <mxGeometry x="240" y="50" width="80" height="60" as="geometry" />
        </mxCell>
        <mxCell id="m6Nd3gaxf4WbKn25r59d-8" value="&lt;b&gt;ISP&lt;/b&gt;" style="rounded=0;whiteSpace=wrap;html=1;fillColor=#ffcd28;gradientColor=#ffa500;strokeColor=#d79b00;" vertex="1" parent="1">
          <mxGeometry x="380" y="160" width="120" height="60" as="geometry" />
        </mxCell>
        <mxCell id="m6Nd3gaxf4WbKn25r59d-12" style="edgeStyle=orthogonalEdgeStyle;rounded=0;orthogonalLoop=1;jettySize=auto;html=1;entryX=0;entryY=0.5;entryDx=0;entryDy=0;" edge="1" parent="1" source="m6Nd3gaxf4WbKn25r59d-10" target="m6Nd3gaxf4WbKn25r59d-11">
          <mxGeometry relative="1" as="geometry" />
        </mxCell>
        <mxCell id="m6Nd3gaxf4WbKn25r59d-10" value="&lt;b&gt;ISP&lt;/b&gt;" style="rounded=0;whiteSpace=wrap;html=1;fillColor=#ffcd28;gradientColor=#ffa500;strokeColor=#d79b00;" vertex="1" parent="1">
          <mxGeometry x="-60" y="380" width="120" height="60" as="geometry" />
        </mxCell>
        <mxCell id="m6Nd3gaxf4WbKn25r59d-14" style="edgeStyle=orthogonalEdgeStyle;rounded=0;orthogonalLoop=1;jettySize=auto;html=1;entryX=0;entryY=0.5;entryDx=0;entryDy=0;" edge="1" parent="1" source="m6Nd3gaxf4WbKn25r59d-11" target="m6Nd3gaxf4WbKn25r59d-13">
          <mxGeometry relative="1" as="geometry" />
        </mxCell>
        <mxCell id="m6Nd3gaxf4WbKn25r59d-16" style="edgeStyle=orthogonalEdgeStyle;rounded=0;orthogonalLoop=1;jettySize=auto;html=1;entryX=0;entryY=0.5;entryDx=0;entryDy=0;" edge="1" parent="1" source="m6Nd3gaxf4WbKn25r59d-11" target="m6Nd3gaxf4WbKn25r59d-15">
          <mxGeometry relative="1" as="geometry" />
        </mxCell>
        <mxCell id="m6Nd3gaxf4WbKn25r59d-11" value="&lt;b&gt;DNS Resolver&lt;/b&gt;" style="rounded=0;whiteSpace=wrap;html=1;fillColor=#f8cecc;gradientColor=#ea6b66;strokeColor=#b85450;" vertex="1" parent="1">
          <mxGeometry x="130" y="380" width="120" height="60" as="geometry" />
        </mxCell>
        <mxCell id="m6Nd3gaxf4WbKn25r59d-13" value="&lt;b&gt;Cache&lt;/b&gt;" style="ellipse;whiteSpace=wrap;html=1;fillColor=#f5f5f5;gradientColor=#b3b3b3;strokeColor=#666666;" vertex="1" parent="1">
          <mxGeometry x="230" y="280" width="80" height="60" as="geometry" />
        </mxCell>
        <mxCell id="m6Nd3gaxf4WbKn25r59d-21" style="edgeStyle=orthogonalEdgeStyle;rounded=0;orthogonalLoop=1;jettySize=auto;html=1;entryX=1;entryY=0.5;entryDx=0;entryDy=0;" edge="1" parent="1" source="m6Nd3gaxf4WbKn25r59d-15" target="m6Nd3gaxf4WbKn25r59d-20">
          <mxGeometry relative="1" as="geometry" />
        </mxCell>
        <mxCell id="m6Nd3gaxf4WbKn25r59d-15" value="&lt;b&gt;Root Servers&lt;/b&gt;" style="rounded=0;whiteSpace=wrap;html=1;fillColor=#e6d0de;gradientColor=#d5739d;strokeColor=#996185;" vertex="1" parent="1">
          <mxGeometry x="365" y="380" width="120" height="60" as="geometry" />
        </mxCell>
        <mxCell id="m6Nd3gaxf4WbKn25r59d-17" value="&lt;b&gt;daws82s.online&lt;/b&gt;" style="text;html=1;align=center;verticalAlign=middle;resizable=0;points=[];autosize=1;strokeColor=none;fillColor=none;" vertex="1" parent="1">
          <mxGeometry x="255" y="430" width="110" height="30" as="geometry" />
        </mxCell>
        <mxCell id="m6Nd3gaxf4WbKn25r59d-23" style="edgeStyle=orthogonalEdgeStyle;rounded=0;orthogonalLoop=1;jettySize=auto;html=1;entryX=0.5;entryY=1;entryDx=0;entryDy=0;" edge="1" parent="1" source="m6Nd3gaxf4WbKn25r59d-20" target="m6Nd3gaxf4WbKn25r59d-11">
          <mxGeometry relative="1" as="geometry" />
        </mxCell>
        <mxCell id="m6Nd3gaxf4WbKn25r59d-20" value="&lt;b&gt;.online TLD&lt;/b&gt;" style="rounded=0;whiteSpace=wrap;html=1;fillColor=#e6d0de;gradientColor=#d5739d;strokeColor=#996185;" vertex="1" parent="1">
          <mxGeometry x="260" y="500" width="120" height="60" as="geometry" />
        </mxCell>
        <mxCell id="m6Nd3gaxf4WbKn25r59d-22" value="&lt;b&gt;ICANN&lt;/b&gt;" style="text;html=1;align=center;verticalAlign=middle;resizable=0;points=[];autosize=1;strokeColor=none;fillColor=none;" vertex="1" parent="1">
          <mxGeometry x="395" y="340" width="60" height="30" as="geometry" />
        </mxCell>
        <mxCell id="m6Nd3gaxf4WbKn25r59d-26" style="edgeStyle=orthogonalEdgeStyle;rounded=0;orthogonalLoop=1;jettySize=auto;html=1;entryX=0;entryY=0.5;entryDx=0;entryDy=0;" edge="1" parent="1" source="m6Nd3gaxf4WbKn25r59d-24" target="m6Nd3gaxf4WbKn25r59d-25">
          <mxGeometry relative="1" as="geometry" />
        </mxCell>
        <mxCell id="m6Nd3gaxf4WbKn25r59d-31" style="edgeStyle=orthogonalEdgeStyle;rounded=0;orthogonalLoop=1;jettySize=auto;html=1;entryX=0.5;entryY=0;entryDx=0;entryDy=0;" edge="1" parent="1" source="m6Nd3gaxf4WbKn25r59d-24" target="m6Nd3gaxf4WbKn25r59d-30">
          <mxGeometry relative="1" as="geometry">
            <Array as="points">
              <mxPoint x="-10" y="600" />
              <mxPoint x="390" y="600" />
            </Array>
          </mxGeometry>
        </mxCell>
        <mxCell id="m6Nd3gaxf4WbKn25r59d-24" value="&lt;b&gt;DNS Resolver&lt;/b&gt;" style="rounded=0;whiteSpace=wrap;html=1;fillColor=#f8cecc;gradientColor=#ea6b66;strokeColor=#b85450;" vertex="1" parent="1">
          <mxGeometry x="-70" y="640" width="120" height="60" as="geometry" />
        </mxCell>
        <mxCell id="m6Nd3gaxf4WbKn25r59d-28" style="edgeStyle=orthogonalEdgeStyle;rounded=0;orthogonalLoop=1;jettySize=auto;html=1;entryX=1;entryY=0.5;entryDx=0;entryDy=0;" edge="1" parent="1" source="m6Nd3gaxf4WbKn25r59d-25" target="m6Nd3gaxf4WbKn25r59d-27">
          <mxGeometry relative="1" as="geometry" />
        </mxCell>
        <mxCell id="m6Nd3gaxf4WbKn25r59d-25" value="&lt;b&gt;.com TLD&lt;/b&gt;" style="rounded=0;whiteSpace=wrap;html=1;fillColor=#e6d0de;gradientColor=#d5739d;strokeColor=#996185;" vertex="1" parent="1">
          <mxGeometry x="130" y="640" width="120" height="60" as="geometry" />
        </mxCell>
        <mxCell id="m6Nd3gaxf4WbKn25r59d-27" value="&lt;b&gt;namservers&lt;/b&gt;" style="rounded=0;whiteSpace=wrap;html=1;fillColor=#dae8fc;gradientColor=#7ea6e0;strokeColor=#6c8ebf;" vertex="1" parent="1">
          <mxGeometry x="30" y="760" width="120" height="60" as="geometry" />
        </mxCell>
        <mxCell id="m6Nd3gaxf4WbKn25r59d-29" style="edgeStyle=orthogonalEdgeStyle;rounded=0;orthogonalLoop=1;jettySize=auto;html=1;entryX=0.393;entryY=1.047;entryDx=0;entryDy=0;entryPerimeter=0;exitX=0;exitY=0.5;exitDx=0;exitDy=0;" edge="1" parent="1" source="m6Nd3gaxf4WbKn25r59d-27" target="m6Nd3gaxf4WbKn25r59d-24">
          <mxGeometry relative="1" as="geometry" />
        </mxCell>
        <mxCell id="m6Nd3gaxf4WbKn25r59d-33" style="edgeStyle=orthogonalEdgeStyle;rounded=0;orthogonalLoop=1;jettySize=auto;html=1;entryX=0;entryY=0.5;entryDx=0;entryDy=0;" edge="1" parent="1" source="m6Nd3gaxf4WbKn25r59d-30" target="m6Nd3gaxf4WbKn25r59d-32">
          <mxGeometry relative="1" as="geometry" />
        </mxCell>
        <mxCell id="m6Nd3gaxf4WbKn25r59d-30" value="&lt;div&gt;&lt;b&gt;Hostinger&lt;/b&gt;&lt;/div&gt;&lt;b&gt;namservers&lt;/b&gt;" style="rounded=0;whiteSpace=wrap;html=1;fillColor=#dae8fc;gradientColor=#7ea6e0;strokeColor=#6c8ebf;" vertex="1" parent="1">
          <mxGeometry x="330" y="640" width="120" height="60" as="geometry" />
        </mxCell>
        <mxCell id="m6Nd3gaxf4WbKn25r59d-32" value="&lt;b&gt;IP address&lt;/b&gt;" style="rounded=0;whiteSpace=wrap;html=1;fillColor=#dae8fc;gradientColor=#7ea6e0;strokeColor=#6c8ebf;" vertex="1" parent="1">
          <mxGeometry x="520" y="640" width="120" height="60" as="geometry" />
        </mxCell>
      </root>
    </mxGraphModel>
  </diagram>
</mxfile>
